<?xml version="1.0" encoding="UTF-8" standalone="no"?>
<!DOCTYPE svg PUBLIC "-//W3C//DTD SVG 1.1//EN" "http://www.w3.org/Graphics/SVG/1.1/DTD/svg11.dtd">
<svg width="100%" height="100%" viewBox="0 0 48 48" version="1.1" xmlns="http://www.w3.org/2000/svg" xmlns:xlink="http://www.w3.org/1999/xlink" xml:space="preserve" style="fill-rule:evenodd;clip-rule:evenodd;stroke-linejoin:round;stroke-miterlimit:1.41421;">
    <path id="Shape" d="M38.766,4.152C38.016,3.842 37.158,4.014 36.586,4.586C34.616,6.556 32.674,7.554 30.816,7.554C27.752,7.554 25.612,4.818 25.6,4.8C25.224,4.3 24.634,4.008 24.008,4.004C23.458,3.964 22.79,4.296 22.406,4.79C22.386,4.818 20.248,7.554 17.186,7.554C15.326,7.554 13.386,6.556 11.414,4.586C10.84,4.014 9.98,3.842 9.234,4.152C8.488,4.46 8,5.192 8,6L8,28C8,35.616 21.526,42.958 23.068,43.77C23.36,43.924 23.68,44 24,44C24.32,44 24.64,43.924 24.932,43.77C26.474,42.958 40,35.616 40,28L40,6C40,5.192 39.512,4.46 38.766,4.152ZM30,30L18,30L18,20.969L19.5,20.969L19.5,18.516C19.5,16.026 21.519,14 24,14C26.481,14 28.5,16.026 28.5,18.516L28.5,20.969L30,20.969L30,30ZM24,17.01C23.174,17.01 22.5,17.686 22.5,18.516L22.5,20.969L25.5,20.969L25.5,18.516C25.5,17.685 24.827,17.01 24,17.01ZM24,27C24.828,27 25.5,26.328 25.5,25.5C25.5,24.672 24.828,24 24,24C23.172,24 22.5,24.672 22.5,25.5C22.5,26.328 23.172,27 24,27Z" style="fill:rgb(120,184,42);"/>
</svg>
